<svg xmlns="http://www.w3.org/2000/svg" viewBox="0 0 1052.41 376.13"><defs><style>.a{fill:#3c3c3c;}</style></defs><title>Element 1</title><path class="a" d="M35,144.7l-.18-.13.16.13Z"/><path class="a" d="M20,144.24a13.28,13.28,0,0,1,2.16-1.09,13.2,13.2,0,0,0-4.75,21.37A13.2,13.2,0,0,1,20,144.24Z"/><path class="a" d="M32.74,143.42a13.46,13.46,0,0,1,1.81,1A13.46,13.46,0,0,0,32.74,143.42Z"/><path class="a" d="M30.17,142.52a13.3,13.3,0,0,1,2.12.69A13.33,13.33,0,0,0,30.17,142.52Z"/><path class="a" d="M27.14,142.16a13.17,13.17,0,0,0-2,.17,13.13,13.13,0,0,1,2.28-.16Z"/><path class="a" d="M291.13,106.79a13.37,13.37,0,0,1,1.83-.5A13.34,13.34,0,0,0,291.13,106.79Z"/><path class="a" d="M27.8,142.2a13.47,13.47,0,0,1,2,.24A13.49,13.49,0,0,0,27.8,142.2Z"/><path class="a" d="M289.93,131.4a13.12,13.12,0,0,1-1.81-1A13.12,13.12,0,0,0,289.93,131.4Z"/><path class="a" d="M285.76,128.37a13.36,13.36,0,0,1-1.49-1.89A13.27,13.27,0,0,0,285.76,128.37Z"/><path class="a" d="M295.52,132.65a13.26,13.26,0,0,0,2.05-.17,13.11,13.11,0,0,1-2.29.16Z"/><path class="a" d="M302.65,130.58a13.29,13.29,0,0,1-2.15,1.08A13.32,13.32,0,0,0,302.65,130.58Z"/><path class="a" d="M294.87,132.62a13.41,13.41,0,0,1-2-.25A13.42,13.42,0,0,0,294.87,132.62Z"/><path class="a" d="M287.88,130.25a13.28,13.28,0,0,1-1.75-1.48A13.33,13.33,0,0,0,287.88,130.25Z"/><path class="a" d="M292.49,132.29a13.31,13.31,0,0,1-2.12-.69A13.33,13.33,0,0,0,292.49,132.29Z"/><path class="a" d="M22.79,142.93a13.22,13.22,0,0,1,1.8-.49A13.19,13.19,0,0,0,22.79,142.93Z"/><path class="a" d="M299.88,131.88a13.14,13.14,0,0,1-1.81.49A13.14,13.14,0,0,0,299.88,131.88Z"/><path class="a" d="M294.59,37.68a13.22,13.22,0,0,1,1.75,1.49A13.16,13.16,0,0,0,294.59,37.68Z"/><path class="a" d="M24.14,168.44a13.19,13.19,0,0,1-2.12-.69A13.19,13.19,0,0,0,24.14,168.44Z"/><path class="a" d="M27.17,168.8a13.22,13.22,0,0,0,2.05-.17,13.22,13.22,0,0,1-2.29.16Z"/><path class="a" d="M26.52,168.76a13.18,13.18,0,0,1-2-.24A13.18,13.18,0,0,0,26.52,168.76Z"/><path class="a" d="M83.47,65.2h-.23a13.4,13.4,0,0,0-2.05.17A13.36,13.36,0,0,1,83.47,65.2Z"/><path class="a" d="M34.3,166.72a13.32,13.32,0,0,1-2.15,1.08A13.29,13.29,0,0,0,34.3,166.72Z"/><path class="a" d="M31.52,168a13.21,13.21,0,0,1-1.8.49A13.21,13.21,0,0,0,31.52,168Z"/><path class="a" d="M290,35.64a13.47,13.47,0,0,1,2.12.69A13.34,13.34,0,0,0,290,35.64Z"/><path class="a" d="M273.67,48.41c0-.06,0-.11,0-.17S273.67,48.35,273.67,48.41Z"/><path class="a" d="M292.55,36.53a13.26,13.26,0,0,1,1.82,1A13.26,13.26,0,0,0,292.55,36.53Z"/><path class="a" d="M282.6,36a13.33,13.33,0,0,1,1.81-.49A13.33,13.33,0,0,0,282.6,36Z"/><path class="a" d="M21.58,167.55a13.28,13.28,0,0,1-1.82-1A13.23,13.23,0,0,0,21.58,167.55Z"/><path class="a" d="M19.54,166.4a13.43,13.43,0,0,1-1.76-1.49A13.31,13.31,0,0,0,19.54,166.4Z"/><path class="a" d="M287.61,35.32a13.56,13.56,0,0,1,2,.24A13.56,13.56,0,0,0,287.61,35.32Z"/><path class="a" d="M147.55,18.32a13.32,13.32,0,0,0-2,16.71h0A13.32,13.32,0,0,1,147.55,18.32Z"/><path class="a" d="M159.83,14.93a13.3,13.3,0,0,1,2.12.69A13.3,13.3,0,0,0,159.83,14.93Z"/><path class="a" d="M120,128a13.28,13.28,0,0,1-1.75-1.48A13.23,13.23,0,0,0,120,128Z"/><path class="a" d="M117.86,126.17a13.35,13.35,0,0,1-1.47-1.87A13.41,13.41,0,0,0,117.86,126.17Z"/><path class="a" d="M305.26,110.3a13.36,13.36,0,0,1,1.47,1.87A13.36,13.36,0,0,0,305.26,110.3Z"/><path class="a" d="M123.24,104.58a13.15,13.15,0,0,1,1.81-.49A13.15,13.15,0,0,0,123.24,104.58Z"/><path class="a" d="M128.24,103.85a13.43,13.43,0,0,1,2,.25A13.43,13.43,0,0,0,128.24,103.85Z"/><path class="a" d="M124.6,130.09a13.41,13.41,0,0,1-2.13-.69A13.41,13.41,0,0,0,124.6,130.09Z"/><path class="a" d="M127.6,103.81a13.24,13.24,0,0,0-2.05.17,13.1,13.1,0,0,1,2.29-.16Z"/><path class="a" d="M164.44,17a13.31,13.31,0,0,1,1.75,1.48A13.31,13.31,0,0,0,164.44,17Z"/><path class="a" d="M164.91,38.38h0a13.2,13.2,0,0,0,5-8.23A13.2,13.2,0,0,1,164.91,38.38Z"/><path class="a" d="M127,130.41a13.22,13.22,0,0,1-2-.25A13.22,13.22,0,0,0,127,130.41Z"/><path class="a" d="M166.56,18.85A13.31,13.31,0,0,1,168,20.73,13.23,13.23,0,0,0,166.56,18.85Z"/><path class="a" d="M148.64,38.34a13,13,0,0,1-1.2-1,12.9,12.9,0,0,0,1.19,1.05Z"/><path class="a" d="M127.62,130.45a13.3,13.3,0,0,0,2.06-.17,13.37,13.37,0,0,1-2.3.16Z"/><path class="a" d="M162.39,15.82a13.1,13.1,0,0,1,1.81,1A13.14,13.14,0,0,0,162.39,15.82Z"/><path class="a" d="M132,129.68a13.19,13.19,0,0,1-1.83.5A13.4,13.4,0,0,0,132,129.68Z"/><path class="a" d="M122,129.2a13.06,13.06,0,0,1-1.81-1A13.22,13.22,0,0,0,122,129.2Z"/><path class="a" d="M295.49,106a13.27,13.27,0,0,0-2.06.17,13.34,13.34,0,0,1,2.3-.16Z"/><path class="a" d="M296.14,106.06a13.36,13.36,0,0,1,2,.25A13.35,13.35,0,0,0,296.14,106.06Z"/><path class="a" d="M147.07,36.93A13.22,13.22,0,0,1,145.58,35,13.27,13.27,0,0,0,147.07,36.93Z"/><path class="a" d="M149.67,16.65a13.24,13.24,0,0,1,2.15-1.08A13.24,13.24,0,0,0,149.67,16.65Z"/><path class="a" d="M303.13,108.42a13.26,13.26,0,0,1,1.75,1.48A13.15,13.15,0,0,0,303.13,108.42Z"/><path class="a" d="M301.09,107.27a13.32,13.32,0,0,1,1.81,1A13.32,13.32,0,0,0,301.09,107.27Z"/><path class="a" d="M298.52,106.38a13.5,13.5,0,0,1,2.12.69A13.52,13.52,0,0,0,298.52,106.38Z"/><path class="a" d="M156.8,14.57a13.25,13.25,0,0,0-2.05.17,13.29,13.29,0,0,1,2.29-.16Z"/><path class="a" d="M91.82,88.62h0A13.12,13.12,0,0,0,93,69.46a13.13,13.13,0,0,1-1.16,19.16Z"/><path class="a" d="M131.65,104.47c-.34-.11-.68-.21-1-.3.34.08.66.22,1,.32Z"/><path class="a" d="M157.45,14.61a13.46,13.46,0,0,1,2,.25A13.46,13.46,0,0,0,157.45,14.61Z"/><path class="a" d="M134.76,128.37a13.26,13.26,0,0,1-2.16,1.09,12.53,12.53,0,0,0,5.67-4.39A13.23,13.23,0,0,1,134.76,128.37Z"/><path class="a" d="M152.44,15.34a13.47,13.47,0,0,1,1.82-.49A13.47,13.47,0,0,0,152.44,15.34Z"/><path class="a" d="M140.71,119.22a13.29,13.29,0,0,1-1.58,4.48,13.29,13.29,0,0,0,1.58-4.48Z"/><path class="a" d="M122.62,104.81a13.36,13.36,0,0,0-2.16,1.08c-.28.18-.51.41-.77.61.26-.2.49-.43.77-.61A13.39,13.39,0,0,1,122.62,104.81Z"/><path class="a" d="M287,35.28a13.4,13.4,0,0,0-2.05.17,13.38,13.38,0,0,1,2.29-.16Z"/><path class="a" d="M389,141.13a13.37,13.37,0,0,1,2.16-1.08,13.24,13.24,0,0,0-2.16,1.08,12.91,12.91,0,0,0-1.31,1h0A13.12,13.12,0,0,1,389,141.13Z"/><path class="a" d="M83.88,65.22a13.38,13.38,0,0,1,2,.25A13.38,13.38,0,0,0,83.88,65.22Z"/><path class="a" d="M409.28,154.32a13.22,13.22,0,0,0-.27-5.24A13.22,13.22,0,0,1,409.28,154.32Z"/><path class="a" d="M395.52,165.65a13.27,13.27,0,0,1-2-.24A13.27,13.27,0,0,0,395.52,165.65Z"/><path class="a" d="M390.58,164.43a13.12,13.12,0,0,1-1.81-1A13.28,13.28,0,0,0,390.58,164.43Z"/><path class="a" d="M393.14,165.33a13.45,13.45,0,0,1-2.12-.69A13.43,13.43,0,0,0,393.14,165.33Z"/><path class="a" d="M403.31,163.61h0a13.19,13.19,0,0,0,3.45-3.24A13.2,13.2,0,0,1,403.31,163.61Z"/><path class="a" d="M388.54,163.28a13.38,13.38,0,0,1-1.75-1.49A13.22,13.22,0,0,0,388.54,163.28Z"/><path class="a" d="M384.78,159.23h0c.06.09.08.19.14.28a13.36,13.36,0,0,0,1.49,1.89,13.36,13.36,0,0,1-1.49-1.89C384.87,159.42,384.84,159.32,384.78,159.23Z"/><path class="a" d="M379.8,83.13A13.24,13.24,0,0,1,381.28,85,13.33,13.33,0,0,0,379.8,83.13Z"/><path class="a" d="M362.9,80.93a13.41,13.41,0,0,1,2.16-1.08,12.58,12.58,0,0,0-5.69,4.42A13.23,13.23,0,0,1,362.9,80.93Z"/><path class="a" d="M358.81,99.31a13.26,13.26,0,0,1-.28-13.72,13.26,13.26,0,0,0,.28,13.72c.22.34.46.65.7,1l0,0C359.3,99.93,359,99.65,358.81,99.31Z"/><path class="a" d="M365.68,79.62a13,13,0,0,1,1.8-.49A13.1,13.1,0,0,0,365.68,79.62Z"/><path class="a" d="M370.7,78.89a13.42,13.42,0,0,1,2,.24A13.41,13.41,0,0,0,370.7,78.89Z"/><path class="a" d="M370,78.85a13.35,13.35,0,0,0-2,.17,13.26,13.26,0,0,1,2.28-.16Z"/><path class="a" d="M377.67,81.25a13.31,13.31,0,0,1,1.74,1.48A13.2,13.2,0,0,0,377.67,81.25Z"/><path class="a" d="M375.63,80.1a13.31,13.31,0,0,1,1.8,1A13.31,13.31,0,0,0,375.63,80.1Z"/><path class="a" d="M373.07,79.21a13.46,13.46,0,0,1,2.12.69A13.31,13.31,0,0,0,373.07,79.21Z"/><path class="a" d="M407.8,158.73a13.17,13.17,0,0,1-.67,1.21A13.17,13.17,0,0,0,407.8,158.73Z"/><path class="a" d="M86.26,65.54a13.35,13.35,0,0,1,2.12.69A13.35,13.35,0,0,0,86.26,65.54Z"/><path class="a" d="M88.82,66.44a13.25,13.25,0,0,1,1.82,1A13.25,13.25,0,0,0,88.82,66.44Z"/><path class="a" d="M90.86,67.59a13.1,13.1,0,0,1,1.76,1.49A13.05,13.05,0,0,0,90.86,67.59Z"/><path class="a" d="M73.49,87.54A13.39,13.39,0,0,1,72,85.67,13.39,13.39,0,0,0,73.49,87.54Z"/><path class="a" d="M396.15,139.05a13.18,13.18,0,0,0-2,.17,13.16,13.16,0,0,1,2.28-.16Z"/><path class="a" d="M391.79,139.82a13.23,13.23,0,0,1,1.8-.49A13.2,13.2,0,0,0,391.79,139.82Z"/><path class="a" d="M279.82,37.36A13.21,13.21,0,0,1,282,36.27a13.05,13.05,0,0,0-8.28,11.61A13.27,13.27,0,0,1,279.82,37.36Z"/><path class="a" d="M396.8,139.09a13.35,13.35,0,0,1,2,.25A13.35,13.35,0,0,0,396.8,139.09Z"/><path class="a" d="M294.12,59.83A13.25,13.25,0,0,1,292,60.92a13.2,13.2,0,0,0,4.75-21.36,13.2,13.2,0,0,1-2.6,20.28Z"/><path class="a" d="M73.87,87.94c.21.21.42.41.63.6v-.06C74.3,88.3,74.07,88.14,73.87,87.94Z"/><path class="a" d="M76.1,67.26a13.27,13.27,0,0,1,2.15-1.08A13.27,13.27,0,0,0,76.1,67.26Z"/><path class="a" d="M396.18,165.69a13.22,13.22,0,0,0,2.05-.17,13.21,13.21,0,0,1-2.29.16Z"/><path class="a" d="M78.87,66a13.27,13.27,0,0,1,1.8-.49A13.49,13.49,0,0,0,78.87,66Z"/><path class="a" d="M403.31,163.61a13.36,13.36,0,0,1-2.16,1.08A13.33,13.33,0,0,0,403.31,163.61Z"/><path class="a" d="M289.9,61.56a12.9,12.9,0,0,0,1.44-.41,12.92,12.92,0,0,1-1.42.39Z"/><path class="a" d="M400.53,164.92a13,13,0,0,1-1.8.49A13.24,13.24,0,0,0,400.53,164.92Z"/><path class="a" d="M408.39,157.63l0,.06Z"/><path class="a" d="M399.18,139.41a13.35,13.35,0,0,1,2.13.69A13.22,13.22,0,0,0,399.18,139.41Z"/><path class="a" d="M401.74,140.3a13.4,13.4,0,0,1,1.82,1A13.36,13.36,0,0,0,401.74,140.3Z"/><path class="a" d="M405.91,143.33a13.31,13.31,0,0,1,1.49,1.89A13.36,13.36,0,0,0,405.91,143.33Z"/><path class="a" d="M403.79,141.45a13.29,13.29,0,0,1,1.75,1.48A13.24,13.24,0,0,0,403.79,141.45Z"/><path class="a" d="M36.91,146.45a13.18,13.18,0,0,1,1.47,1.87A13.32,13.32,0,0,0,36.91,146.45Z"/><path class="a" d="M154.61,179.91,91.44,137.48l0,4.66c0,.14,0,.26,0,.4a8.57,8.57,0,0,1-.1.89c0,.28-.1.55-.17.82s-.15.52-.25.78a8.64,8.64,0,0,1-.34.82c-.11.23-.24.45-.37.68a8.48,8.48,0,0,1-.53.79c-.08.1-.13.22-.22.32s-.16.15-.24.23a8.71,8.71,0,0,1-.85.81c-.17.15-.34.3-.52.43a8.53,8.53,0,0,1-1,.6c-.18.1-.36.21-.54.29a8.39,8.39,0,0,1-1.28.43c-.14,0-.27.1-.4.13a8.67,8.67,0,0,1-1.79.19h0l-.15,0a8.76,8.76,0,0,1-1.47-.16c-.17,0-.33-.09-.5-.13a8.35,8.35,0,0,1-1-.33c-.19-.08-.37-.17-.56-.26a8.59,8.59,0,0,1-.85-.47c-.2-.12-.38-.26-.57-.4s-.26-.16-.38-.26L64,137.68,50.15,141a26.92,26.92,0,0,1,4,16.83l26.89-6.49,59.65,40.07L126,365.37a8.66,8.66,0,0,0,7.89,9.36l.75,0a8.66,8.66,0,0,0,8.61-7.92l15.15-179A8.66,8.66,0,0,0,154.61,179.91Z"/><path class="a" d="M36.53,146A13.21,13.21,0,0,0,35,144.7h0A13.08,13.08,0,0,1,36.53,146Z"/><path class="a" d="M83.26,91.82a13.33,13.33,0,0,0,2-.17,13.4,13.4,0,0,1-2.28.16Z"/><path class="a" d="M74.39,104.15l-.15,19.51L88.3,135.44a8.6,8.6,0,0,1,3.05,7.1c0-.14,0-.26,0-.4l0-4.66.26-33.21a26.39,26.39,0,0,1-17.31-.13Z"/><path class="a" d="M90.39,89.74a13.3,13.3,0,0,1-2.16,1.09,10.54,10.54,0,0,0,3.59-2.21h0A13.15,13.15,0,0,1,90.39,89.74Z"/><path class="a" d="M82.59,91.78a13.45,13.45,0,0,1-2-.24A13.45,13.45,0,0,0,82.59,91.78Z"/><path class="a" d="M74.51,88.54a13.31,13.31,0,0,0,1.11.88,13.61,13.61,0,0,1-1.11-.94Z"/><path class="a" d="M77.65,90.56a13.38,13.38,0,0,1-1.79-1A13.22,13.22,0,0,0,77.65,90.56Z"/><path class="a" d="M80.22,91.46a13.32,13.32,0,0,1-2.11-.69A13.35,13.35,0,0,0,80.22,91.46Z"/><path class="a" d="M87.61,91.05a13.11,13.11,0,0,1-1.8.49A13.11,13.11,0,0,0,87.61,91.05Z"/><path class="a" d="M82.7,150.73h0l-.19,0Z"/><path class="a" d="M82.74,150.73a8.67,8.67,0,0,0,1.79-.19,8.67,8.67,0,0,1-1.8.19Z"/><path class="a" d="M81.08,150.55c-.17,0-.33-.09-.5-.13C80.75,150.46,80.91,150.52,81.08,150.55Z"/><path class="a" d="M90.85,145a8.54,8.54,0,0,1-.34.82A8.64,8.64,0,0,0,90.85,145Z"/><path class="a" d="M79.54,150.09c-.19-.08-.37-.17-.56-.26C79.17,149.92,79.35,150,79.54,150.09Z"/><path class="a" d="M87.77,149.09a8.47,8.47,0,0,1-1,.6A8.53,8.53,0,0,0,87.77,149.09Z"/><path class="a" d="M90.13,146.52a8.75,8.75,0,0,1-.53.79A8.48,8.48,0,0,0,90.13,146.52Z"/><path class="a" d="M91.26,143.43c0,.27-.1.55-.17.82C91.16,144,91.22,143.7,91.26,143.43Z"/><path class="a" d="M89.14,147.86a8.58,8.58,0,0,1-.85.81A8.71,8.71,0,0,0,89.14,147.86Z"/><path class="a" d="M86.23,150a8.59,8.59,0,0,1-1.28.43A8.39,8.39,0,0,0,86.23,150Z"/><path class="a" d="M78.13,149.36c-.19-.12-.38-.26-.57-.4C77.75,149.11,77.94,149.24,78.13,149.36Z"/><path class="a" d="M88.3,135.44,74.23,123.65l-11.9-10a27,27,0,0,1-10.69,13c-.14.09-.29.15-.42.23L64,137.68l13.16,11c.12.1.26.17.38.26s.37.27.57.4a8.59,8.59,0,0,0,.85.47c.18.09.37.18.56.26a8.35,8.35,0,0,0,1,.33c.17,0,.33.1.5.13a8.76,8.76,0,0,0,1.47.16l.19,0a8.67,8.67,0,0,0,1.8-.19c.14,0,.27-.09.4-.13a8.59,8.59,0,0,0,1.28-.43c.19-.08.36-.2.54-.29a8.47,8.47,0,0,0,1-.6c.18-.13.35-.28.52-.43a8.58,8.58,0,0,0,.85-.81c.08-.08.17-.14.24-.23s.14-.22.22-.32a8.75,8.75,0,0,0,.53-.79c.13-.22.26-.45.37-.68a8.54,8.54,0,0,0,.34-.82c.09-.26.18-.52.25-.78s.12-.54.17-.82a8.66,8.66,0,0,0-3-8Z"/><path class="a" d="M132.75,104.86c-.36-.15-.73-.28-1.1-.4l0,0C132,104.61,132.38,104.71,132.75,104.86Z"/><path class="a" d="M133.18,105.06a13.37,13.37,0,0,1,1.83,1A13.37,13.37,0,0,0,133.18,105.06Z"/><path class="a" d="M135.23,106.21a13.23,13.23,0,0,1,1.76,1.49A13.07,13.07,0,0,0,135.23,106.21Z"/><path class="a" d="M140.71,119.22h0a12.88,12.88,0,0,0-3.36-11.14,13.39,13.39,0,0,1,1.5,1.9A13.21,13.21,0,0,1,140.71,119.22Z"/><path class="a" d="M165.93,96.3l0,2.52a8.66,8.66,0,0,1-8.58,8.73h-.08a8.6,8.6,0,0,1-4.94-1.57,26.89,26.89,0,0,1,1.7,5l.54-.34,29,45.1L180.3,365.94a8.66,8.66,0,0,0,8.52,8.79H189a8.66,8.66,0,0,0,8.65-8.52L201,153.41a8.64,8.64,0,0,0-1.38-4.82Z"/><path class="a" d="M164,39.13a13.35,13.35,0,0,1-2.16,1.09A13.3,13.3,0,0,0,164,39.13c.35-.22.63-.5.95-.74h0C164.59,38.63,164.31,38.91,164,39.13Z"/><path class="a" d="M156.19,41.17a13.27,13.27,0,0,1-2-.25A13.27,13.27,0,0,0,156.19,41.17Z"/><path class="a" d="M153.8,40.85a13.42,13.42,0,0,1-2.13-.69A13.42,13.42,0,0,0,153.8,40.85Z"/><path class="a" d="M156.83,41.21a13.27,13.27,0,0,0,2.06-.17,13.34,13.34,0,0,1-2.3.16Z"/><path class="a" d="M161.19,40.44a13.08,13.08,0,0,1-1.82.5A13.08,13.08,0,0,0,161.19,40.44Z"/><path class="a" d="M151.24,40a13,13,0,0,1-1.83-1A13.08,13.08,0,0,0,151.24,40Z"/><path class="a" d="M148.63,38.37c.19.15.37.3.56.44-.2-.14-.36-.32-.55-.47Z"/><path class="a" d="M148.77,100.13a27.52,27.52,0,0,1,1.77,2.43,27.13,27.13,0,0,1,1.81,3.43,8.6,8.6,0,0,0,4.94,1.57h.08a8.66,8.66,0,0,0,8.58-8.73l0-2.52-.39-42.74a26.26,26.26,0,0,1-17.31.06L148.59,94l0,5A8.66,8.66,0,0,0,148.77,100.13Z"/><path class="a" d="M288.36,108.1a13.27,13.27,0,0,1,2.16-1.09,12.58,12.58,0,0,0-5.72,4.45A13.25,13.25,0,0,1,288.36,108.1Z"/><path class="a" d="M268.9,114.07a27.1,27.1,0,0,1,8.6-15l-5.71-3.27-3.92,7.4c0,.09-.13.16-.18.25a8.52,8.52,0,0,1-1.06,1.46c-.09.11-.17.22-.27.32a8.58,8.58,0,0,1-1.62,1.28c-.15.1-.32.16-.48.24a8.55,8.55,0,0,1-.91.46c-.18.07-.37.1-.56.16l-.55.16a8.64,8.64,0,0,1-2,.27h0a8.55,8.55,0,0,1-1.8-.22l-.39-.09a8.78,8.78,0,0,1-1.73-.66l-.11,0c-.08,0-.14-.1-.21-.14a8.56,8.56,0,0,1-1-.68l-.35-.28a8.74,8.74,0,0,1-1-1l-.1-.11a8.73,8.73,0,0,1-.84-1.26c-.08-.14-.14-.29-.21-.44s-.22-.41-.3-.63l-1.59-4.1-32.67,50.74a8.64,8.64,0,0,0-1.38,4.82l3.64,212.49v.25a8.54,8.54,0,0,0,8.64,8.3H229a8.77,8.77,0,0,0,8.47-8.92L233.85,156,263,110.71Z"/><path class="a" d="M266.35,105.21a8.6,8.6,0,0,1-1.62,1.28A8.58,8.58,0,0,0,266.35,105.21Z"/><path class="a" d="M267.68,103.42a8.53,8.53,0,0,1-1.06,1.46A8.52,8.52,0,0,0,267.68,103.42Z"/><path class="a" d="M252.44,102.87a8.62,8.62,0,0,1,.12-7.8l8.88-16.77L249.75,48a27.39,27.39,0,0,1-2.77,2,27.08,27.08,0,0,1-13.39,4.16l17,43.89,1.59,4.1C252.22,102.46,252.34,102.66,252.44,102.87Z"/><path class="a" d="M253.49,104.57a8.67,8.67,0,0,1-.84-1.26A8.73,8.73,0,0,0,253.49,104.57Z"/><path class="a" d="M258,107.47a8.68,8.68,0,0,1-1.73-.66A8.78,8.78,0,0,0,258,107.47Z"/><path class="a" d="M255.95,106.63a8.62,8.62,0,0,1-1-.68A8.56,8.56,0,0,0,255.95,106.63Z"/><path class="a" d="M254.58,105.67a8.74,8.74,0,0,1-1-1A8.74,8.74,0,0,0,254.58,105.67Z"/><path class="a" d="M260.19,107.78a8.52,8.52,0,0,1-1.8-.22A8.55,8.55,0,0,0,260.19,107.78Z"/><path class="a" d="M260.22,107.78a8.64,8.64,0,0,0,2-.27,8.65,8.65,0,0,1-2,.27Z"/><path class="a" d="M263.33,107.2a8.55,8.55,0,0,0,.91-.46,8.71,8.71,0,0,1-1.47.62C263,107.29,263.15,107.27,263.33,107.2Z"/><path class="a" d="M277.22,57.63a13.18,13.18,0,0,1-1.48-1.88A13.24,13.24,0,0,0,277.22,57.63Z"/><path class="a" d="M286.32,61.87a13.28,13.28,0,0,1-2-.24A13.28,13.28,0,0,0,286.32,61.87Z"/><path class="a" d="M283.95,61.55a13.2,13.2,0,0,1-2.11-.69A13.23,13.23,0,0,0,283.95,61.55Z"/><path class="a" d="M279.34,59.51A13.37,13.37,0,0,1,277.6,58,13.32,13.32,0,0,0,279.34,59.51Z"/><path class="a" d="M287,61.92a13.35,13.35,0,0,0,2-.17,13.41,13.41,0,0,1-2.28.16Z"/><path class="a" d="M289.54,61.63l.36-.08v0Z"/><path class="a" d="M281.38,60.66a13.3,13.3,0,0,1-1.79-1A13.47,13.47,0,0,0,281.38,60.66Z"/><path class="a" d="M252.56,95.07a8.62,8.62,0,0,0-.12,7.8c.07.15.13.3.21.44a8.67,8.67,0,0,0,.84,1.26l.1.11a8.74,8.74,0,0,0,1,1l.35.28a8.62,8.62,0,0,0,1,.68c.08,0,.14.1.21.14l.11,0a8.68,8.68,0,0,0,1.73.66l.39.09a8.52,8.52,0,0,0,1.8.22h0a8.65,8.65,0,0,0,2-.27l.55-.16a8.71,8.71,0,0,0,1.47-.62c.16-.08.32-.15.48-.24a8.6,8.6,0,0,0,1.62-1.28c.1-.1.18-.22.27-.32a8.53,8.53,0,0,0,1.06-1.46c.05-.09.13-.15.18-.25l3.92-7.4,10.81-20.41a26.91,26.91,0,0,1-15.29-8.11l-5.85,11Z"/><path class="a" d="M384.78,159.23h0a13.26,13.26,0,0,1,2.92-17.07h0A13.26,13.26,0,0,0,384.78,159.23Z"/><path class="a" d="M342.59,151.54l26.72,4.87a27,27,0,0,1,3-17l-17.11-3.12-8.69,12.25A8.63,8.63,0,0,1,342.59,151.54Z"/><path class="a" d="M332.4,138.47l3.09-4.35a8.58,8.58,0,0,0-1.42.77l-67,45a8.65,8.65,0,0,0-3.8,7.94l13.25,151.26,2.9,27.89a8.66,8.66,0,0,0,8.6,7.74c.31,0,.61,0,.93,0a8.66,8.66,0,0,0,7.69-9.53l-2.89-27.72-12.79-146,58.6-39.35a8.54,8.54,0,0,1-5.07-1.54A8.66,8.66,0,0,1,332.4,138.47Z"/><path class="a" d="M367,105.13a13.55,13.55,0,0,1-2.13-.69A13.34,13.34,0,0,0,367,105.13Z"/><path class="a" d="M369.41,105.45a13.22,13.22,0,0,1-2-.25A13.23,13.23,0,0,0,369.41,105.45Z"/><path class="a" d="M377.18,103.41a13.37,13.37,0,0,1-2.15,1.08A13.22,13.22,0,0,0,377.18,103.41Z"/><path class="a" d="M374.42,104.72a13.25,13.25,0,0,1-1.8.49A13.25,13.25,0,0,0,374.42,104.72Z"/><path class="a" d="M370.06,105.49a13.23,13.23,0,0,0,2.05-.17,13.24,13.24,0,0,1-2.29.16Z"/><path class="a" d="M362.43,103.08a13.2,13.2,0,0,1-1.76-1.49A13.2,13.2,0,0,0,362.43,103.08Z"/><path class="a" d="M359.54,100.24l0,0q.38.49.79.94C360,100.91,359.79,100.57,359.54,100.24Z"/><path class="a" d="M364.47,104.24a13.3,13.3,0,0,1-1.82-1A13.3,13.3,0,0,0,364.47,104.24Z"/><path class="a" d="M346.52,148.49l8.69-12.25,12.12-17.08a27,27,0,0,1-16-7.34l-15.82,22.29-3.09,4.35a8.66,8.66,0,0,0,2.05,12.07,8.54,8.54,0,0,0,5.07,1.54,8.63,8.63,0,0,0,2.89-.46l.17-.08A8.63,8.63,0,0,0,346.52,148.49Z"/><path class="a" d="M50.15,141l-.07-.13a27,27,0,0,0-11.53-10c-.49,0-1,.1-1.48.1a27.15,27.15,0,0,1-11.4-2.54,27.13,27.13,0,1,0,16.07,50,27,27,0,0,0,11.94-17,27.42,27.42,0,0,0,.52-3.52A26.92,26.92,0,0,0,50.15,141ZM34.3,166.72h0a13.29,13.29,0,0,1-2.15,1.08l-.62.23a13.21,13.21,0,0,1-1.8.49l-.5.11a13.22,13.22,0,0,1-2.05.17l-.23,0-.41,0a13.18,13.18,0,0,1-2-.24l-.4-.08a13.19,13.19,0,0,1-2.12-.69l-.44-.2a13.23,13.23,0,0,1-1.82-1l-.23-.14a13.31,13.31,0,0,1-1.76-1.49l-.36-.38a13.2,13.2,0,0,1,4.75-21.37l.62-.23a13.19,13.19,0,0,1,1.8-.49c.17,0,.34-.08.51-.11a13.17,13.17,0,0,1,2-.17h.23l.43,0a13.49,13.49,0,0,1,2,.24l.4.08a13.33,13.33,0,0,1,2.12.69l.44.2a13.46,13.46,0,0,1,1.81,1l.24.15.18.13A13.21,13.21,0,0,1,36.53,146l.38.4a13.32,13.32,0,0,1,1.47,1.87v0A13.32,13.32,0,0,1,34.3,166.72Z"/><path class="a" d="M38.54,130.86a27.06,27.06,0,0,0,12.67-3.91c.14-.08.29-.14.42-.23a27,27,0,0,0,10.69-13,27.48,27.48,0,0,0,1.24-4,27,27,0,0,0-.24-12.78A26.1,26.1,0,0,1,57,85.39,27.11,27.11,0,1,0,37.07,131C37.56,131,38.05,130.89,38.54,130.86Zm-8.64-38.3a13.32,13.32,0,1,1-4.09,18.38A13.26,13.26,0,0,1,29.91,92.56Z"/><path class="a" d="M63.33,96.91a26.88,26.88,0,0,0,11.06,7.23,27.15,27.15,0,1,0,8.85-52.81h0a27,27,0,0,0-19.9,45.58ZM83.47,65.2l.41,0a13.38,13.38,0,0,1,2,.25l.4.07a13.35,13.35,0,0,1,2.12.69l.44.2a13.25,13.25,0,0,1,1.82,1l.23.14a13.05,13.05,0,0,1,1.76,1.49l.36.38a13.2,13.2,0,0,1-4.75,21.37l-.62.23a13.11,13.11,0,0,1-1.8.49l-.51.11a13.33,13.33,0,0,1-2,.17H83l-.43,0a13.45,13.45,0,0,1-2-.24l-.42-.08a13.35,13.35,0,0,1-2.11-.69l-.46-.21a13.22,13.22,0,0,1-1.79-1l-.25-.16a13.31,13.31,0,0,1-1.11-.88c-.22-.19-.43-.39-.63-.6l-.39-.4A13.39,13.39,0,0,1,72,85.67v0a13.32,13.32,0,0,1,4.09-18.38h0a13.27,13.27,0,0,1,2.15-1.08l.62-.23a13.49,13.49,0,0,1,1.8-.49l.5-.11a13.4,13.4,0,0,1,2.05-.17Z"/><path class="a" d="M165.54,53.56A27.14,27.14,0,0,0,156.8.72h0a27.17,27.17,0,1,0,8.74,52.84Zm-18.1-16.24-.37-.39A13.27,13.27,0,0,1,145.58,35h0a13.31,13.31,0,0,1,4.09-18.38h0a13.24,13.24,0,0,1,2.15-1.08l.62-.23a13.47,13.47,0,0,1,1.82-.49l.49-.1a13.25,13.25,0,0,1,2.05-.17l.24,0,.41,0a13.46,13.46,0,0,1,2,.25l.4.08a13.3,13.3,0,0,1,2.12.69l.44.2a13.14,13.14,0,0,1,1.81,1l.24.15a13.31,13.31,0,0,1,1.75,1.48l.38.4A13.23,13.23,0,0,1,168,20.73v0a13.32,13.32,0,0,1-3.14,17.64c-.32.25-.6.52-.95.74a13.3,13.3,0,0,1-2.16,1.09l-.61.22a13.08,13.08,0,0,1-1.82.5l-.48.1a13.27,13.27,0,0,1-2.06.17h-.24l-.4,0a13.27,13.27,0,0,1-2-.25l-.39-.07a13.42,13.42,0,0,1-2.13-.69l-.43-.2a13.08,13.08,0,0,1-1.83-1l-.22-.14c-.19-.13-.38-.29-.56-.44A12.9,12.9,0,0,1,147.44,37.32Z"/><path class="a" d="M282.58,75.37a26.53,26.53,0,0,0,19-3.85A27.17,27.17,0,0,0,287,21.43h0a27.15,27.15,0,0,0-4.37,53.94Zm-8.93-27.13c0-.12,0-.24,0-.36A13.05,13.05,0,0,1,282,36.27l.62-.23a13.33,13.33,0,0,1,1.81-.49l.5-.11a13.4,13.4,0,0,1,2.05-.17h.23l.42,0a13.56,13.56,0,0,1,2,.24l.4.08a13.34,13.34,0,0,1,2.12.69l.44.2a13.26,13.26,0,0,1,1.82,1l.23.14a13.16,13.16,0,0,1,1.75,1.49l.37.39A13.2,13.2,0,0,1,292,60.92l-.62.23a12.9,12.9,0,0,1-1.44.41l-.36.08-.51.11a13.35,13.35,0,0,1-2,.17h-.23l-.43,0a13.28,13.28,0,0,1-2-.24l-.42-.08a13.23,13.23,0,0,1-2.11-.69l-.45-.21a13.47,13.47,0,0,1-1.79-1l-.25-.15A13.32,13.32,0,0,1,277.6,58l-.38-.4a13.24,13.24,0,0,1-1.48-1.88h0a13.23,13.23,0,0,1-2.07-7.34C273.67,48.35,273.65,48.3,273.66,48.24Z"/><path class="a" d="M268.9,114.07a27.14,27.14,0,1,0,26.6-21.9h0a27.19,27.19,0,0,0-26.6,21.9Zm26.6-8,.24,0,.4,0a13.35,13.35,0,0,1,2,.25l.4.07a13.52,13.52,0,0,1,2.12.69l.44.2a13.32,13.32,0,0,1,1.81,1l.24.15a13.15,13.15,0,0,1,1.75,1.48l.38.4a13.36,13.36,0,0,1,1.47,1.87v0a13.32,13.32,0,0,1-4.09,18.38h0a13.32,13.32,0,0,1-2.15,1.08l-.62.23a13.14,13.14,0,0,1-1.81.49l-.49.1a13.26,13.26,0,0,1-2.05.17l-.24,0-.41,0a13.42,13.42,0,0,1-2-.25l-.4-.08a13.33,13.33,0,0,1-2.12-.69l-.44-.2a13.12,13.12,0,0,1-1.81-1l-.24-.15a13.33,13.33,0,0,1-1.75-1.48l-.37-.39a13.27,13.27,0,0,1-1.49-1.89h0A13.2,13.2,0,0,1,290.52,107l.61-.22a13.34,13.34,0,0,1,1.83-.5l.48-.1A13.27,13.27,0,0,1,295.49,106Z"/><path class="a" d="M367.34,119.16c.9.09,1.81.17,2.72.17a28.16,28.16,0,1,0-2.72-.17Zm-8.52-19.85a13.2,13.2,0,0,1,6.25-19.47l.62-.23a13.1,13.1,0,0,1,1.8-.49L368,79a13.35,13.35,0,0,1,2-.17l.23,0,.43,0a13.41,13.41,0,0,1,2,.24l.4.08a13.31,13.31,0,0,1,2.12.69l.44.2a13.31,13.31,0,0,1,1.8,1l.24.15a13.2,13.2,0,0,1,1.74,1.48l.38.4A13.33,13.33,0,0,1,381.28,85h0a13.32,13.32,0,0,1-4.09,18.38h0a13.22,13.22,0,0,1-2.15,1.08l-.62.23a13.25,13.25,0,0,1-1.8.49l-.5.11a13.23,13.23,0,0,1-2.05.17l-.24,0-.41,0a13.23,13.23,0,0,1-2-.25l-.4-.07a13.34,13.34,0,0,1-2.13-.69l-.43-.2a13.3,13.3,0,0,1-1.82-1l-.23-.14a13.2,13.2,0,0,1-1.76-1.49l-.36-.38q-.42-.45-.79-.94C359.27,100,359,99.65,358.81,99.32Z"/><path class="a" d="M369.31,156.41a27,27,0,1,0,.34-9.94A27.08,27.08,0,0,0,369.31,156.41ZM389,141.13a13.24,13.24,0,0,1,2.16-1.08l.62-.23a13.2,13.2,0,0,1,1.8-.49c.17,0,.34-.08.51-.11a13.18,13.18,0,0,1,2-.17h.23l.42,0a13.35,13.35,0,0,1,2,.25l.4.07a13.22,13.22,0,0,1,2.13.69l.43.2a13.36,13.36,0,0,1,1.82,1l.23.14a13.24,13.24,0,0,1,1.75,1.48l.38.39a13.36,13.36,0,0,1,1.49,1.89h0a13.83,13.83,0,0,1,1.88,9.1,13.32,13.32,0,0,1-.89,3.31l0,.06c-.16.36-.39.69-.58,1a13.17,13.17,0,0,1-.67,1.21c-.1.15-.25.28-.36.42a13.19,13.19,0,0,1-3.45,3.24h0a13.33,13.33,0,0,1-2.16,1.08l-.62.23a13.24,13.24,0,0,1-1.8.49l-.5.11a13.22,13.22,0,0,1-2.05.17l-.23,0-.42,0a13.27,13.27,0,0,1-2-.24l-.41-.08a13.43,13.43,0,0,1-2.12-.69l-.44-.2a13.28,13.28,0,0,1-1.81-1l-.24-.15a13.22,13.22,0,0,1-1.75-1.49l-.37-.39a13.36,13.36,0,0,1-1.49-1.89c-.06-.09-.09-.19-.14-.28a13.26,13.26,0,0,1,2.92-17.07A12.91,12.91,0,0,1,389,141.13Z"/><path class="a" d="M249.75,48A27.15,27.15,0,0,0,232.39,0h0a27.17,27.17,0,0,0,0,54.33c.4,0,.78-.07,1.17-.08A27.08,27.08,0,0,0,247,50.09,27.39,27.39,0,0,0,249.75,48Zm-10.2-9.64A13.32,13.32,0,1,1,243.64,20,13.26,13.26,0,0,1,239.55,38.4Z"/><path class="a" d="M150.53,102.55a27.52,27.52,0,0,0-1.77-2.43A27.47,27.47,0,0,0,127.6,90h0a26.81,26.81,0,1,0,22.94,12.59Zm-12.27,22.51a12.53,12.53,0,0,1-5.67,4.39l-.61.22a13.4,13.4,0,0,1-1.83.5l-.48.1a13.3,13.3,0,0,1-2.06.17l-.24,0-.4,0a13.22,13.22,0,0,1-2-.25l-.39-.07a13.41,13.41,0,0,1-2.13-.69l-.44-.2a13.22,13.22,0,0,1-1.81-1L120,128a13.23,13.23,0,0,1-1.75-1.48l-.38-.4a13.41,13.41,0,0,1-1.47-1.87v0a13.27,13.27,0,0,1,3.32-17.77c.26-.2.49-.43.77-.61a13.36,13.36,0,0,1,2.16-1.08l.62-.23a13.15,13.15,0,0,1,1.81-.49l.49-.1a13.24,13.24,0,0,1,2.05-.17l.24,0,.41,0a13.43,13.43,0,0,1,2,.25l.4.07c.35.08.69.19,1,.3s.74.24,1.1.4l.43.2a13.37,13.37,0,0,1,1.83,1l.22.14a13.07,13.07,0,0,1,1.76,1.49l.36.38a13.57,13.57,0,0,1,.92,17Z"/><path class="a" d="M447.23,253.06l-14.78,15.36c-9-6.91-16.51-10.37-27.46-10.37-18.82,0-33.79,14-33.79,48.58,0,35.52,10,48.38,29.57,48.38a40.73,40.73,0,0,0,19.78-4.8V317.76H401.92L399,297.22h49v65.47a90,90,0,0,1-46.66,13.44c-39.17,0-59.71-24-59.71-69.7,0-44.93,27.84-69.31,62.21-69.31C422.85,237.12,436.1,243.65,447.23,253.06Z"/><path class="a" d="M498.69,351.75h45.12l-3.07,21.31H471.42V264.2h27.26Z"/><path class="a" d="M628.67,283.4H588V308h35.52v19H588v26.69h43.39v19.39H560.7V264.2h70.66Z"/><path class="a" d="M741.76,373.06H707.2l-33.79-84.67c1.73,11.71,4.22,25.73,4.22,45.89v38.78H653.25V264.2h34l34.37,84.87a230.83,230.83,0,0,1-4-42.82v-42h24.19Z"/><path class="a" d="M850.62,274l-13.06,15.55c-6.14-5.18-12.67-7.87-20.74-7.87-14.59,0-25.15,11.14-25.15,36.48C791.67,343.88,802,355,817.4,355c9,0,15.55-4,22.27-9l12.48,15.55c-7.68,7.49-20.16,14.21-36.48,14.21-31.1,0-52.42-20-52.42-57.6,0-35.71,22.27-56.45,51.84-56.45C830.65,261.7,841.21,266.31,850.62,274Z"/><path class="a" d="M960.25,318.34c0,35.71-19.39,57.41-51.65,57.41-32.45,0-52-20.93-52-57.41,0-34.94,19.58-56.64,52-56.64C940.86,261.7,960.25,282.63,960.25,318.34Zm-75.26,0c0,27.26,8.45,37.82,23.62,37.82,15.55,0,23.42-10.56,23.42-37.82,0-26.3-8.06-36.86-23.42-36.86S885,292,885,318.34Z"/><path class="a" d="M1049.72,283.4H1009V308h35.52v19H1009v26.69h43.39v19.39H981.75V264.2h70.66Z"/></svg>